<svg xmlns="http://www.w3.org/2000/svg" width="19" height="19" viewBox="0 0 19 19">
  <g id="Group_247" data-name="Group 247" transform="translate(-64 -64)">
    <path id="Path_375" data-name="Path 375" d="M325.088,353h-.995a.675.675,0,0,0-.549.282l-3.333,4.623-1.51-2.1a.678.678,0,0,0-.549-.282h-.995a.17.17,0,0,0-.138.269l2.642,3.664a.674.674,0,0,0,1.1,0l4.466-6.192A.169.169,0,0,0,325.088,353Z" transform="translate(-247.623 -282.872)" fill="#10b981" stroke="#000" stroke-width="0"/>
    <path id="Path_376" data-name="Path 376" d="M73.5,64A9.5,9.5,0,1,0,83,73.5,9.5,9.5,0,0,0,73.5,64Zm0,17.388A7.888,7.888,0,1,1,81.388,73.5,7.89,7.89,0,0,1,73.5,81.388Z" fill="#10b981" stroke="#000" stroke-width="0"/>
  </g>
</svg>
